<mxfile host="app.diagrams.net" modified="2023-01-24T13:16:01.548Z" agent="5.0 (Windows NT 10.0; Win64; x64) AppleWebKit/537.36 (KHTML, like Gecko) Chrome/109.0.0.0 Safari/537.36" etag="LjkQCG2FyOwkFU4n4rpU" version="20.8.10" type="github">
  <diagram id="C5RBs43oDa-KdzZeNtuy" name="Page-1">
    <mxGraphModel dx="1707" dy="484" grid="1" gridSize="10" guides="1" tooltips="1" connect="1" arrows="1" fold="1" page="1" pageScale="1" pageWidth="827" pageHeight="1169" math="0" shadow="0">
      <root>
        <mxCell id="WIyWlLk6GJQsqaUBKTNV-0" />
        <mxCell id="WIyWlLk6GJQsqaUBKTNV-1" parent="WIyWlLk6GJQsqaUBKTNV-0" />
        <mxCell id="cebCR0Fih9ZBO1giH67O-1" style="edgeStyle=orthogonalEdgeStyle;rounded=0;orthogonalLoop=1;jettySize=auto;html=1;" edge="1" parent="WIyWlLk6GJQsqaUBKTNV-1" source="cebCR0Fih9ZBO1giH67O-0" target="cebCR0Fih9ZBO1giH67O-2">
          <mxGeometry relative="1" as="geometry">
            <mxPoint x="100" y="160" as="targetPoint" />
          </mxGeometry>
        </mxCell>
        <mxCell id="cebCR0Fih9ZBO1giH67O-0" value="start" style="ellipse;whiteSpace=wrap;html=1;" vertex="1" parent="WIyWlLk6GJQsqaUBKTNV-1">
          <mxGeometry x="40" y="40" width="120" height="80" as="geometry" />
        </mxCell>
        <mxCell id="cebCR0Fih9ZBO1giH67O-3" style="edgeStyle=orthogonalEdgeStyle;rounded=0;orthogonalLoop=1;jettySize=auto;html=1;" edge="1" parent="WIyWlLk6GJQsqaUBKTNV-1" source="cebCR0Fih9ZBO1giH67O-2" target="cebCR0Fih9ZBO1giH67O-4">
          <mxGeometry relative="1" as="geometry">
            <mxPoint x="100" y="280" as="targetPoint" />
          </mxGeometry>
        </mxCell>
        <mxCell id="cebCR0Fih9ZBO1giH67O-2" value="declare a, b, c" style="shape=hexagon;perimeter=hexagonPerimeter2;whiteSpace=wrap;html=1;fixedSize=1;" vertex="1" parent="WIyWlLk6GJQsqaUBKTNV-1">
          <mxGeometry x="40" y="160" width="120" height="80" as="geometry" />
        </mxCell>
        <mxCell id="cebCR0Fih9ZBO1giH67O-5" style="edgeStyle=orthogonalEdgeStyle;rounded=0;orthogonalLoop=1;jettySize=auto;html=1;" edge="1" parent="WIyWlLk6GJQsqaUBKTNV-1" source="cebCR0Fih9ZBO1giH67O-4" target="cebCR0Fih9ZBO1giH67O-6">
          <mxGeometry relative="1" as="geometry">
            <mxPoint x="100" y="380" as="targetPoint" />
          </mxGeometry>
        </mxCell>
        <mxCell id="cebCR0Fih9ZBO1giH67O-16" style="edgeStyle=orthogonalEdgeStyle;rounded=0;orthogonalLoop=1;jettySize=auto;html=1;exitX=1;exitY=0.5;exitDx=0;exitDy=0;startArrow=none;" edge="1" parent="WIyWlLk6GJQsqaUBKTNV-1" source="cebCR0Fih9ZBO1giH67O-32" target="cebCR0Fih9ZBO1giH67O-17">
          <mxGeometry relative="1" as="geometry">
            <mxPoint x="320" y="380" as="targetPoint" />
          </mxGeometry>
        </mxCell>
        <mxCell id="cebCR0Fih9ZBO1giH67O-18" style="edgeStyle=orthogonalEdgeStyle;rounded=0;orthogonalLoop=1;jettySize=auto;html=1;entryX=0.5;entryY=0;entryDx=0;entryDy=0;startArrow=none;" edge="1" parent="WIyWlLk6GJQsqaUBKTNV-1" target="cebCR0Fih9ZBO1giH67O-15">
          <mxGeometry relative="1" as="geometry">
            <mxPoint x="-120" y="370" as="targetPoint" />
            <mxPoint x="-120" y="470" as="sourcePoint" />
          </mxGeometry>
        </mxCell>
        <mxCell id="cebCR0Fih9ZBO1giH67O-4" value="INPUT&lt;br&gt;get value of a, get value of b, get value of c" style="shape=parallelogram;perimeter=parallelogramPerimeter;whiteSpace=wrap;html=1;fixedSize=1;" vertex="1" parent="WIyWlLk6GJQsqaUBKTNV-1">
          <mxGeometry x="-35" y="280" width="270" height="60" as="geometry" />
        </mxCell>
        <mxCell id="cebCR0Fih9ZBO1giH67O-6" value="a&amp;gt;b" style="rhombus;whiteSpace=wrap;html=1;" vertex="1" parent="WIyWlLk6GJQsqaUBKTNV-1">
          <mxGeometry x="60" y="380" width="80" height="80" as="geometry" />
        </mxCell>
        <mxCell id="cebCR0Fih9ZBO1giH67O-22" style="edgeStyle=orthogonalEdgeStyle;rounded=0;orthogonalLoop=1;jettySize=auto;html=1;startArrow=none;" edge="1" parent="WIyWlLk6GJQsqaUBKTNV-1" source="cebCR0Fih9ZBO1giH67O-40">
          <mxGeometry relative="1" as="geometry">
            <mxPoint x="100" y="620" as="targetPoint" />
          </mxGeometry>
        </mxCell>
        <mxCell id="cebCR0Fih9ZBO1giH67O-23" style="edgeStyle=orthogonalEdgeStyle;rounded=0;orthogonalLoop=1;jettySize=auto;html=1;startArrow=none;" edge="1" parent="WIyWlLk6GJQsqaUBKTNV-1" source="cebCR0Fih9ZBO1giH67O-41">
          <mxGeometry relative="1" as="geometry">
            <mxPoint x="-280" y="620" as="targetPoint" />
          </mxGeometry>
        </mxCell>
        <mxCell id="cebCR0Fih9ZBO1giH67O-15" value="b&amp;gt;c" style="rhombus;whiteSpace=wrap;html=1;" vertex="1" parent="WIyWlLk6GJQsqaUBKTNV-1">
          <mxGeometry x="-160" y="480" width="80" height="80" as="geometry" />
        </mxCell>
        <mxCell id="cebCR0Fih9ZBO1giH67O-24" style="edgeStyle=orthogonalEdgeStyle;rounded=0;orthogonalLoop=1;jettySize=auto;html=1;startArrow=none;" edge="1" parent="WIyWlLk6GJQsqaUBKTNV-1" source="cebCR0Fih9ZBO1giH67O-43" target="cebCR0Fih9ZBO1giH67O-25">
          <mxGeometry relative="1" as="geometry">
            <mxPoint x="480" y="620" as="targetPoint" />
          </mxGeometry>
        </mxCell>
        <mxCell id="cebCR0Fih9ZBO1giH67O-17" value="a&amp;gt;c" style="rhombus;whiteSpace=wrap;html=1;" vertex="1" parent="WIyWlLk6GJQsqaUBKTNV-1">
          <mxGeometry x="280" y="480" width="80" height="80" as="geometry" />
        </mxCell>
        <mxCell id="cebCR0Fih9ZBO1giH67O-27" style="edgeStyle=orthogonalEdgeStyle;rounded=0;orthogonalLoop=1;jettySize=auto;html=1;" edge="1" parent="WIyWlLk6GJQsqaUBKTNV-1" source="cebCR0Fih9ZBO1giH67O-20" target="cebCR0Fih9ZBO1giH67O-28">
          <mxGeometry relative="1" as="geometry">
            <mxPoint x="100" y="800" as="targetPoint" />
          </mxGeometry>
        </mxCell>
        <mxCell id="cebCR0Fih9ZBO1giH67O-20" value="OUTPUT c" style="shape=parallelogram;perimeter=parallelogramPerimeter;whiteSpace=wrap;html=1;fixedSize=1;" vertex="1" parent="WIyWlLk6GJQsqaUBKTNV-1">
          <mxGeometry x="40" y="621" width="120" height="60" as="geometry" />
        </mxCell>
        <mxCell id="cebCR0Fih9ZBO1giH67O-30" style="edgeStyle=orthogonalEdgeStyle;rounded=0;orthogonalLoop=1;jettySize=auto;html=1;" edge="1" parent="WIyWlLk6GJQsqaUBKTNV-1" source="cebCR0Fih9ZBO1giH67O-25" target="cebCR0Fih9ZBO1giH67O-28">
          <mxGeometry relative="1" as="geometry">
            <mxPoint x="100" y="790" as="targetPoint" />
            <Array as="points">
              <mxPoint x="480" y="710" />
              <mxPoint x="100" y="710" />
            </Array>
          </mxGeometry>
        </mxCell>
        <mxCell id="cebCR0Fih9ZBO1giH67O-25" value="OUTPUT a" style="shape=parallelogram;perimeter=parallelogramPerimeter;whiteSpace=wrap;html=1;fixedSize=1;" vertex="1" parent="WIyWlLk6GJQsqaUBKTNV-1">
          <mxGeometry x="420" y="621" width="120" height="60" as="geometry" />
        </mxCell>
        <mxCell id="cebCR0Fih9ZBO1giH67O-29" style="edgeStyle=orthogonalEdgeStyle;rounded=0;orthogonalLoop=1;jettySize=auto;html=1;" edge="1" parent="WIyWlLk6GJQsqaUBKTNV-1" source="cebCR0Fih9ZBO1giH67O-26">
          <mxGeometry relative="1" as="geometry">
            <mxPoint x="100" y="800" as="targetPoint" />
            <Array as="points">
              <mxPoint x="-280" y="710" />
              <mxPoint x="100" y="710" />
            </Array>
          </mxGeometry>
        </mxCell>
        <mxCell id="cebCR0Fih9ZBO1giH67O-26" value="OUTPU b" style="shape=parallelogram;perimeter=parallelogramPerimeter;whiteSpace=wrap;html=1;fixedSize=1;" vertex="1" parent="WIyWlLk6GJQsqaUBKTNV-1">
          <mxGeometry x="-340" y="621" width="120" height="60" as="geometry" />
        </mxCell>
        <mxCell id="cebCR0Fih9ZBO1giH67O-28" value="end" style="ellipse;whiteSpace=wrap;html=1;" vertex="1" parent="WIyWlLk6GJQsqaUBKTNV-1">
          <mxGeometry x="40" y="800" width="120" height="80" as="geometry" />
        </mxCell>
        <mxCell id="cebCR0Fih9ZBO1giH67O-33" value="" style="edgeStyle=orthogonalEdgeStyle;rounded=0;orthogonalLoop=1;jettySize=auto;html=1;endArrow=none;startArrow=none;" edge="1" parent="WIyWlLk6GJQsqaUBKTNV-1" source="cebCR0Fih9ZBO1giH67O-35">
          <mxGeometry relative="1" as="geometry">
            <mxPoint x="-120" y="470" as="targetPoint" />
            <mxPoint x="60" y="420" as="sourcePoint" />
          </mxGeometry>
        </mxCell>
        <mxCell id="cebCR0Fih9ZBO1giH67O-34" value="" style="edgeStyle=orthogonalEdgeStyle;rounded=0;orthogonalLoop=1;jettySize=auto;html=1;exitX=1;exitY=0.5;exitDx=0;exitDy=0;endArrow=none;" edge="1" parent="WIyWlLk6GJQsqaUBKTNV-1" source="cebCR0Fih9ZBO1giH67O-6" target="cebCR0Fih9ZBO1giH67O-32">
          <mxGeometry relative="1" as="geometry">
            <mxPoint x="320" y="480" as="targetPoint" />
            <mxPoint x="140" y="420" as="sourcePoint" />
          </mxGeometry>
        </mxCell>
        <mxCell id="cebCR0Fih9ZBO1giH67O-32" value="true" style="text;html=1;align=center;verticalAlign=middle;resizable=0;points=[];autosize=1;strokeColor=none;fillColor=none;" vertex="1" parent="WIyWlLk6GJQsqaUBKTNV-1">
          <mxGeometry x="220" y="405" width="40" height="30" as="geometry" />
        </mxCell>
        <mxCell id="cebCR0Fih9ZBO1giH67O-39" value="" style="edgeStyle=orthogonalEdgeStyle;rounded=0;orthogonalLoop=1;jettySize=auto;html=1;endArrow=none;" edge="1" parent="WIyWlLk6GJQsqaUBKTNV-1" source="cebCR0Fih9ZBO1giH67O-6" target="cebCR0Fih9ZBO1giH67O-35">
          <mxGeometry relative="1" as="geometry">
            <mxPoint x="-120" y="470" as="targetPoint" />
            <mxPoint x="60" y="420" as="sourcePoint" />
          </mxGeometry>
        </mxCell>
        <mxCell id="cebCR0Fih9ZBO1giH67O-35" value="false" style="text;html=1;align=center;verticalAlign=middle;resizable=0;points=[];autosize=1;strokeColor=none;fillColor=none;" vertex="1" parent="WIyWlLk6GJQsqaUBKTNV-1">
          <mxGeometry x="-70" y="405" width="50" height="30" as="geometry" />
        </mxCell>
        <mxCell id="cebCR0Fih9ZBO1giH67O-44" value="" style="edgeStyle=orthogonalEdgeStyle;rounded=0;orthogonalLoop=1;jettySize=auto;html=1;endArrow=none;" edge="1" parent="WIyWlLk6GJQsqaUBKTNV-1" source="cebCR0Fih9ZBO1giH67O-17" target="cebCR0Fih9ZBO1giH67O-43">
          <mxGeometry relative="1" as="geometry">
            <mxPoint x="480" y="621" as="targetPoint" />
            <mxPoint x="360" y="520" as="sourcePoint" />
          </mxGeometry>
        </mxCell>
        <mxCell id="cebCR0Fih9ZBO1giH67O-43" value="true" style="text;html=1;align=center;verticalAlign=middle;resizable=0;points=[];autosize=1;strokeColor=none;fillColor=none;" vertex="1" parent="WIyWlLk6GJQsqaUBKTNV-1">
          <mxGeometry x="460" y="505" width="40" height="30" as="geometry" />
        </mxCell>
        <mxCell id="cebCR0Fih9ZBO1giH67O-45" value="" style="edgeStyle=orthogonalEdgeStyle;rounded=0;orthogonalLoop=1;jettySize=auto;html=1;endArrow=none;" edge="1" parent="WIyWlLk6GJQsqaUBKTNV-1" source="cebCR0Fih9ZBO1giH67O-15" target="cebCR0Fih9ZBO1giH67O-38">
          <mxGeometry relative="1" as="geometry">
            <mxPoint x="100" y="620" as="targetPoint" />
            <mxPoint x="-80" y="520" as="sourcePoint" />
          </mxGeometry>
        </mxCell>
        <mxCell id="cebCR0Fih9ZBO1giH67O-38" value="false" style="text;html=1;align=center;verticalAlign=middle;resizable=0;points=[];autosize=1;strokeColor=none;fillColor=none;" vertex="1" parent="WIyWlLk6GJQsqaUBKTNV-1">
          <mxGeometry x="-10" y="505" width="50" height="30" as="geometry" />
        </mxCell>
        <mxCell id="cebCR0Fih9ZBO1giH67O-46" value="" style="edgeStyle=orthogonalEdgeStyle;rounded=0;orthogonalLoop=1;jettySize=auto;html=1;endArrow=none;" edge="1" parent="WIyWlLk6GJQsqaUBKTNV-1" source="cebCR0Fih9ZBO1giH67O-17" target="cebCR0Fih9ZBO1giH67O-40">
          <mxGeometry relative="1" as="geometry">
            <mxPoint x="100" y="621" as="targetPoint" />
            <mxPoint x="280" y="520" as="sourcePoint" />
          </mxGeometry>
        </mxCell>
        <mxCell id="cebCR0Fih9ZBO1giH67O-47" value="" style="edgeStyle=orthogonalEdgeStyle;rounded=0;orthogonalLoop=1;jettySize=auto;html=1;startArrow=none;endArrow=none;" edge="1" parent="WIyWlLk6GJQsqaUBKTNV-1" source="cebCR0Fih9ZBO1giH67O-38" target="cebCR0Fih9ZBO1giH67O-40">
          <mxGeometry relative="1" as="geometry">
            <mxPoint x="100" y="620" as="targetPoint" />
            <mxPoint x="40" y="520" as="sourcePoint" />
          </mxGeometry>
        </mxCell>
        <mxCell id="cebCR0Fih9ZBO1giH67O-40" value="false" style="text;html=1;align=center;verticalAlign=middle;resizable=0;points=[];autosize=1;strokeColor=none;fillColor=none;" vertex="1" parent="WIyWlLk6GJQsqaUBKTNV-1">
          <mxGeometry x="150" y="505" width="50" height="30" as="geometry" />
        </mxCell>
        <mxCell id="cebCR0Fih9ZBO1giH67O-48" value="" style="edgeStyle=orthogonalEdgeStyle;rounded=0;orthogonalLoop=1;jettySize=auto;html=1;endArrow=none;" edge="1" parent="WIyWlLk6GJQsqaUBKTNV-1" source="cebCR0Fih9ZBO1giH67O-15" target="cebCR0Fih9ZBO1giH67O-41">
          <mxGeometry relative="1" as="geometry">
            <mxPoint x="-280" y="620" as="targetPoint" />
            <mxPoint x="-160" y="520" as="sourcePoint" />
          </mxGeometry>
        </mxCell>
        <mxCell id="cebCR0Fih9ZBO1giH67O-41" value="true" style="text;html=1;align=center;verticalAlign=middle;resizable=0;points=[];autosize=1;strokeColor=none;fillColor=none;" vertex="1" parent="WIyWlLk6GJQsqaUBKTNV-1">
          <mxGeometry x="-300" y="505" width="40" height="30" as="geometry" />
        </mxCell>
      </root>
    </mxGraphModel>
  </diagram>
</mxfile>
